<svg width="48" height="48" viewBox="0 0 48 48" fill="none" xmlns="http://www.w3.org/2000/svg">
  <path d="M24 42.35C23.5333 42.35 23.0583 42.2667 22.575 42.1C22.0917 41.9333 21.6667 41.6667 21.3 41.3L17.85 38.15C14.3167 34.9167 11.125 31.7083 8.275 28.525C5.425 25.3417 4 21.8333 4 18C4 14.8667 5.05 12.25 7.15 10.15C9.25 8.05 11.8667 7 15 7C16.7667 7 18.4333 7.375 20 8.125C21.5667 8.875 22.9 9.9 24 11.2C25.1 9.9 26.4333 8.875 28 8.125C29.5667 7.375 31.2333 7 33 7C36.1333 7 38.75 8.05 40.85 10.15C42.95 12.25 44 14.8667 44 18C44 21.8333 42.5833 25.35 39.75 28.55C36.9167 31.75 33.7 34.9667 30.1 38.2L26.7 41.3C26.3333 41.6667 25.9083 41.9333 25.425 42.1C24.9417 42.2667 24.4667 42.35 24 42.35Z" fill="#008000"/>
</svg>
